PathFileType	4	(X/Y/Z)	 C:\Users\z3550257\Dropbox\University\GitHubClones\TheiaOpensim\ExampleData\P01_procesed_with_single_calib\C3D_data\walkPref_0_Theia.trc
DataRate	CameraRate	NumFrames	NumMarkers	Units	OrigDataRate	OrigDataStartFrame	OrigNumFrames
100	100	10	40	m	100	1295	3452
Frame#	Time	PELVIS1			LHIP			LKNEE			LANK			LMTP			RHIP			RKNEE			RANK			RMTP			CVJ			TORSO			LSHO			LELB			LWRIST			RSHO			RELB			RWRIST			LCALC			RCALC			LTOE			RTOE			LHAND			RHAND			HEAD_CENTRE			TORSO_LOW			LTHI			RTHI			LSHA			RSHA			L_LCALC			R_LCALC			LUA			RUA			LFRM			RFRM			HEAD_L			HEAD_R			TORSO_L			TORSO_R			PELVIS2			
		X1	Y1	Z1	X2	Y2	Z2	X3	Y3	Z3	X4	Y4	Z4	X5	Y5	Z5	X6	Y6	Z6	X7	Y7	Z7	X8	Y8	Z8	X9	Y9	Z9	X10	Y10	Z10	X11	Y11	Z11	X12	Y12	Z12	X13	Y13	Z13	X14	Y14	Z14	X15	Y15	Z15	X16	Y16	Z16	X17	Y17	Z17	X18	Y18	Z18	X19	Y19	Z19	X20	Y20	Z20	X21	Y21	Z21	X22	Y22	Z22	X23	Y23	Z23	X24	Y24	Z24	X25	Y25	Z25	X26	Y26	Z26	X27	Y27	Z27	X28	Y28	Z28	X29	Y29	Z29	X30	Y30	Z30	X31	Y31	Z31	X32	Y32	Z32	X33	Y33	Z33	X34	Y34	Z34	X35	Y35	Z35	X36	Y36	Z36	X37	Y37	Z37	X38	Y38	Z38	X39	Y39	Z39	X40	Y40	Z40	
1295	12.9500	0.557398	1.023803	-0.205300	0.579694	0.936671	-0.301618	0.733639	0.585818	-0.263649	0.750782	0.185231	-0.247054	0.902103	0.130684	-0.248378	0.564541	0.932460	-0.110576	0.513124	0.553617	-0.114743	0.231012	0.267205	-0.144059	0.272589	0.112892	-0.153249	0.566414	1.653883	-0.229314	0.587498	1.545471	-0.223127	0.559301	1.444031	-0.378419	0.517569	1.138374	-0.421987	0.547056	0.874692	-0.445858	0.575890	1.457527	-0.052196	0.572989	1.159838	0.021689	0.697923	0.929189	0.060565	0.698180	0.111628	-0.236953	0.140522	0.270315	-0.157122	0.952343	0.132690	-0.250909	0.311644	0.084158	-0.150679	0.542239	0.795144	-0.453123	0.731325	0.857492	0.073406	0.607336	1.686966	-0.230055	0.581181	1.294899	-0.215809	0.660592	0.746795	-0.356487	0.525501	0.735141	-0.038747	0.742837	0.383509	-0.320312	0.364184	0.413782	-0.064950	0.742666	0.130747	-0.281171	0.180722	0.241806	-0.112021	0.579336	1.300328	-0.390593	0.614176	1.319955	-0.023761	0.564517	1.021419	-0.411265	0.661347	1.069345	0.019416	0.539846	1.776237	-0.303974	0.539230	1.775682	-0.153978	0.581912	1.541234	-0.372963	0.593084	1.549708	-0.073290	0.572117	0.934566	-0.206097	
1296	12.9600	0.559188	1.024985	-0.206211	0.581318	0.938205	-0.302883	0.729996	0.585213	-0.263880	0.740693	0.184345	-0.247418	0.891993	0.129732	-0.248278	0.566548	0.933308	-0.111827	0.527874	0.552916	-0.113529	0.237731	0.274760	-0.144561	0.267442	0.117879	-0.153364	0.566749	1.654662	-0.230276	0.587854	1.546576	-0.224116	0.560922	1.444864	-0.379947	0.521140	1.138952	-0.423514	0.553039	0.875508	-0.446948	0.575405	1.458805	-0.053150	0.571419	1.160788	0.019354	0.693190	0.928537	0.058653	0.688038	0.110777	-0.237383	0.147966	0.284790	-0.158592	0.942231	0.131942	-0.250697	0.302028	0.084057	-0.150831	0.549351	0.795973	-0.454938	0.725092	0.856116	0.071075	0.607718	1.687686	-0.231001	0.582014	1.295991	-0.216809	0.659206	0.746919	-0.357187	0.534168	0.735194	-0.038705	0.735805	0.382771	-0.320612	0.374981	0.417100	-0.064579	0.732651	0.129825	-0.281499	0.185349	0.253275	-0.113068	0.581838	1.301275	-0.391966	0.613228	1.321030	-0.025082	0.569371	1.022514	-0.412978	0.658493	1.069072	0.017172	0.540478	1.776929	-0.305180	0.539607	1.776620	-0.155185	0.582989	1.542318	-0.373974	0.592718	1.550834	-0.074258	0.573933	0.935756	-0.207355	
1297	12.9700	0.560789	1.026161	-0.207104	0.582822	0.939829	-0.304195	0.725667	0.584567	-0.264068	0.730780	0.183572	-0.247854	0.882033	0.128796	-0.248163	0.568464	0.934090	-0.113131	0.542818	0.552551	-0.112259	0.245518	0.282204	-0.145022	0.263455	0.123707	-0.153462	0.567019	1.655470	-0.231146	0.588073	1.547585	-0.224972	0.562390	1.445657	-0.381503	0.524895	1.139490	-0.425251	0.559398	0.876310	-0.448058	0.574801	1.459979	-0.053996	0.569883	1.161656	0.017183	0.688377	0.927790	0.056812	0.678013	0.110060	-0.237984	0.156958	0.298908	-0.159833	0.932277	0.131168	-0.250424	0.293000	0.085303	-0.151085	0.556906	0.796777	-0.456619	0.718598	0.854610	0.068818	0.608047	1.688420	-0.231879	0.582667	1.296988	-0.217769	0.657403	0.747043	-0.357888	0.542853	0.735436	-0.038670	0.728504	0.382082	-0.320930	0.386328	0.420560	-0.064173	0.722806	0.129045	-0.281944	0.191461	0.264716	-0.113960	0.584294	1.302194	-0.393247	0.612224	1.322017	-0.026318	0.574635	1.023661	-0.415068	0.655619	1.068704	0.015060	0.541073	1.777626	-0.306340	0.539984	1.777630	-0.156347	0.583991	1.543365	-0.374853	0.592156	1.551806	-0.075092	0.575643	0.936960	-0.208663	
1298	12.9800	0.562182	1.027320	-0.207961	0.584175	0.941542	-0.305548	0.720791	0.583957	-0.264370	0.721010	0.182950	-0.248366	0.872180	0.127901	-0.248098	0.570318	0.934793	-0.114482	0.557765	0.552553	-0.110968	0.254194	0.289462	-0.145410	0.260892	0.130174	-0.153496	0.567246	1.656336	-0.231975	0.588113	1.548491	-0.225727	0.563663	1.446375	-0.383035	0.528798	1.139967	-0.427221	0.566083	0.877097	-0.449298	0.574122	1.461017	-0.054767	0.568327	1.162426	0.015223	0.683495	0.926947	0.055025	0.668071	0.109522	-0.238754	0.167174	0.312372	-0.160798	0.922434	0.130344	-0.250169	0.285200	0.087984	-0.151350	0.564748	0.797547	-0.458144	0.711884	0.852996	0.066656	0.608348	1.689192	-0.232718	0.583109	1.297881	-0.218691	0.655278	0.747261	-0.358674	0.551597	0.735883	-0.038638	0.721026	0.381479	-0.321345	0.398088	0.424107	-0.063726	0.713080	0.128452	-0.282521	0.198876	0.275893	-0.114655	0.586666	1.303058	-0.394441	0.611160	1.322871	-0.027495	0.580181	1.024819	-0.417455	0.652717	1.068260	0.013140	0.541688	1.778382	-0.307478	0.540372	1.778722	-0.157488	0.584836	1.544349	-0.375628	0.591390	1.552634	-0.075825	0.577246	0.938168	-0.210015	
1299	12.9900	0.563345	1.028446	-0.208766	0.585323	0.943311	-0.306915	0.715488	0.583414	-0.264932	0.711299	0.182473	-0.248926	0.862362	0.127095	-0.248133	0.572128	0.935424	-0.115849	0.572601	0.552957	-0.109675	0.263603	0.296502	-0.145683	0.260157	0.137049	-0.153377	0.567444	1.657274	-0.232797	0.587949	1.549303	-0.226410	0.564727	1.446993	-0.384485	0.532773	1.140378	-0.429403	0.573052	0.877885	-0.450765	0.573375	1.461904	-0.055490	0.566648	1.163099	0.013495	0.678545	0.926051	0.053286	0.658162	0.109143	-0.239609	0.178257	0.324884	-0.161491	0.912630	0.129504	-0.250012	0.279473	0.092012	-0.151469	0.572780	0.798300	-0.459547	0.705023	0.851344	0.064574	0.608635	1.690018	-0.233531	0.583322	1.298681	-0.219577	0.652860	0.747612	-0.359608	0.560471	0.736555	-0.038588	0.713385	0.380953	-0.321913	0.410178	0.427696	-0.063216	0.703386	0.128031	-0.283176	0.207396	0.286562	-0.115132	0.588928	1.303847	-0.395574	0.609989	1.323567	-0.028626	0.585849	1.025959	-0.419993	0.649747	1.067792	0.011469	0.542354	1.779231	-0.308597	0.540760	1.779884	-0.158610	0.585455	1.545263	-0.376331	0.590443	1.553343	-0.076490	0.578725	0.939368	-0.211382	
1300	13.0000	0.564251	1.029533	-0.209506	0.586182	0.945079	-0.308253	0.709830	0.582931	-0.265854	0.701544	0.182114	-0.249479	0.852500	0.126426	-0.248291	0.573880	0.936013	-0.117183	0.587263	0.553801	-0.108394	0.273616	0.303317	-0.145782	0.261727	0.144085	-0.152996	0.567625	1.658274	-0.233622	0.587597	1.550049	-0.227048	0.565595	1.447499	-0.385803	0.536730	1.140728	-0.431729	0.580270	0.878709	-0.452509	0.572528	1.462652	-0.056187	0.564715	1.163687	0.011993	0.673521	0.925168	0.051596	0.648224	0.108875	-0.240420	0.189856	0.336155	-0.161927	0.902783	0.128702	-0.250009	0.276733	0.097135	-0.151261	0.580981	0.799077	-0.460902	0.698110	0.849753	0.062536	0.608913	1.690897	-0.234311	0.583304	1.299416	-0.220429	0.650084	0.748084	-0.360719	0.569504	0.737481	-0.038492	0.705511	0.380467	-0.322651	0.422547	0.431319	-0.062615	0.693624	0.127731	-0.283825	0.216824	0.296479	-0.115369	0.591065	1.304555	-0.396682	0.608636	1.324106	-0.029715	0.591487	1.027074	-0.422516	0.646652	1.067368	0.010081	0.543074	1.780177	-0.309687	0.541117	1.781087	-0.159705	0.585822	1.546122	-0.376984	0.589371	1.553977	-0.077111	0.580031	0.940546	-0.212718	
1301	13.0100	0.564862	1.030586	-0.210163	0.586652	0.946789	-0.309500	0.703844	0.582485	-0.267162	0.691643	0.181835	-0.249963	0.842516	0.125918	-0.248564	0.575501	0.936611	-0.118420	0.601709	0.555136	-0.107151	0.284139	0.309880	-0.145640	0.266038	0.151015	-0.152256	0.567788	1.659314	-0.234442	0.587106	1.550770	-0.227653	0.566290	1.447912	-0.386950	0.540588	1.141046	-0.434109	0.587698	0.879620	-0.454514	0.571527	1.463286	-0.056869	0.562420	1.164215	0.010677	0.668426	0.924372	0.049956	0.638193	0.108666	-0.241076	0.201668	0.345924	-0.162103	0.892812	0.127984	-0.250177	0.277769	0.102972	-0.150584	0.589387	0.799939	-0.462295	0.691235	0.848325	0.060515	0.609173	1.691816	-0.235043	0.583078	1.300128	-0.221238	0.646816	0.748629	-0.361986	0.578612	0.738685	-0.038333	0.697283	0.379986	-0.323538	0.435144	0.434993	-0.061900	0.683700	0.127501	-0.284381	0.226997	0.305407	-0.115333	0.593072	1.305206	-0.397789	0.607024	1.324515	-0.030761	0.596983	1.028185	-0.424880	0.643371	1.067048	0.008957	0.543828	1.781197	-0.310729	0.541412	1.782296	-0.160756	0.585970	1.546953	-0.377602	0.588243	1.554588	-0.077704	0.581076	0.941700	-0.213960	
1302	13.0200	0.565138	1.031628	-0.210716	0.586638	0.948401	-0.310596	0.697527	0.582059	-0.268802	0.681527	0.181614	-0.250338	0.832346	0.125562	-0.248913	0.576872	0.937273	-0.119496	0.615886	0.557008	-0.105987	0.295120	0.316109	-0.145208	0.273361	0.157559	-0.151115	0.567927	1.660371	-0.235235	0.586555	1.551512	-0.228228	0.566840	1.448290	-0.387911	0.544287	1.141389	-0.436448	0.595288	0.880688	-0.456703	0.570327	1.463846	-0.057533	0.559708	1.164707	0.009481	0.663277	0.923720	0.048355	0.628006	0.108487	-0.241521	0.213480	0.353979	-0.162000	0.882653	0.127373	-0.250485	0.283058	0.109063	-0.149374	0.598048	0.800977	-0.463798	0.684472	0.847132	0.058502	0.609404	1.692758	-0.235711	0.582683	1.300863	-0.221988	0.642912	0.749194	-0.363343	0.587594	0.740184	-0.038119	0.688579	0.379495	-0.324522	0.447909	0.438736	-0.061069	0.673547	0.127313	-0.284796	0.237794	0.313122	-0.114994	0.594952	1.305854	-0.398902	0.605111	1.324833	-0.031752	0.602282	1.029356	-0.426995	0.639858	1.066861	0.008003	0.544584	1.782257	-0.311708	0.541619	1.783485	-0.161746	0.585986	1.547788	-0.378185	0.587124	1.555236	-0.078271	0.581755	0.942837	-0.215046	
1303	13.0300	0.565050	1.032688	-0.211147	0.586088	0.949901	-0.311490	0.690875	0.581651	-0.270649	0.671171	0.181447	-0.250594	0.821958	0.125328	-0.249284	0.577863	0.938047	-0.120361	0.629716	0.559453	-0.104965	0.306540	0.321847	-0.144476	0.283713	0.163433	-0.149598	0.568032	1.661426	-0.235985	0.586016	1.552314	-0.228772	0.567271	1.448725	-0.388696	0.547791	1.141845	-0.438673	0.602978	0.882005	-0.458963	0.568924	1.464374	-0.058164	0.556600	1.165188	0.008328	0.658104	0.923239	0.046759	0.617623	0.108340	-0.241777	0.225202	0.360176	-0.161611	0.872273	0.126864	-0.250861	0.292650	0.114934	-0.147667	0.606982	0.802298	-0.465451	0.677874	0.846210	0.056513	0.609591	1.693710	-0.236305	0.582171	1.301661	-0.222656	0.638301	0.749744	-0.364695	0.596173	0.741975	-0.037881	0.679343	0.379011	-0.325534	0.460766	0.442539	-0.060153	0.663144	0.127166	-0.285072	0.249146	0.319429	-0.114350	0.596709	1.306587	-0.400012	0.602907	1.325109	-0.032681	0.607374	1.030683	-0.428841	0.636095	1.066796	0.007063	0.545309	1.783331	-0.312615	0.541727	1.784644	-0.162667	0.585984	1.548655	-0.378733	0.586048	1.555973	-0.078812	0.581976	0.943974	-0.215925	
1304	13.0400	0.564598	1.033793	-0.211447	0.585024	0.951296	-0.312153	0.683903	0.581274	-0.272547	0.660598	0.181338	-0.250766	0.811362	0.125172	-0.249616	0.578378	0.938962	-0.120990	0.643097	0.562476	-0.104159	0.318409	0.326874	-0.143484	0.296845	0.168376	-0.147795	0.568087	1.662477	-0.236677	0.585539	1.553204	-0.229280	0.567616	1.449330	-0.389336	0.551085	1.142513	-0.440754	0.610698	0.883666	-0.461176	0.567360	1.464914	-0.058739	0.553175	1.165679	0.007137	0.652936	0.922927	0.045121	0.607036	0.108247	-0.241920	0.236867	0.364449	-0.160974	0.861681	0.126431	-0.251215	0.306175	0.120166	-0.145577	0.616167	0.804018	-0.467256	0.671465	0.845553	0.054573	0.609719	1.694668	-0.236824	0.581592	1.302551	-0.223220	0.633032	0.750270	-0.365946	0.604090	0.744037	-0.037667	0.669624	0.378572	-0.326516	0.473639	0.446339	-0.059217	0.652521	0.127072	-0.285253	0.261022	0.324182	-0.113449	0.598352	1.307505	-0.401105	0.600476	1.325389	-0.033541	0.612274	1.032277	-0.430452	0.632091	1.066818	0.005965	0.545974	1.784409	-0.313443	0.541735	1.785775	-0.163513	0.586063	1.549569	-0.379239	0.585015	1.556839	-0.079322	0.581701	0.945129	-0.216572	
